<?xml version="1.0" encoding="UTF-8"?>
<svg id="Layer_1" data-name="Layer 1" xmlns="http://www.w3.org/2000/svg" viewBox="0 0 1080 1080">
  <defs>
    <style>
      .cls-1 {
        fill: #d40000;
      }
    </style>
  </defs>
  <path class="cls-1" d="M529.69,831.07c1.33,1.7,2,3.84,2,6.43,0,3.47-1.31,6.13-3.91,8-2.61,1.87-6.41,2.8-11.4,2.8h-19.08v-40h17.94c4.57,0,8.1.91,10.6,2.74,2.49,1.83,3.74,4.36,3.74,7.6,0,2.1-.49,3.91-1.46,5.43-.97,1.52-2.28,2.69-3.91,3.49,2.32.65,4.15,1.82,5.49,3.51ZM503.01,812.93v12.8h11.71c2.93,0,5.19-.54,6.77-1.63,1.58-1.09,2.37-2.68,2.37-4.77s-.79-3.69-2.37-4.77c-1.58-1.09-3.84-1.63-6.77-1.63h-11.71ZM523.46,842.07c1.64-1.07,2.46-2.74,2.46-5.03,0-4.46-3.26-6.68-9.77-6.68h-13.14v13.31h13.14c3.24,0,5.68-.53,7.31-1.6ZM555,834.47v13.83h-5.66v-13.94l-15.88-26.05h6.11l12.8,21.08,12.86-21.08h5.66l-15.88,26.17ZM619.74,828.07h5.49v15.6c-1.98,1.64-4.29,2.9-6.91,3.77-2.63.88-5.37,1.31-8.23,1.31-4.04,0-7.68-.89-10.91-2.66-3.24-1.77-5.78-4.21-7.63-7.31-1.85-3.1-2.77-6.6-2.77-10.48s.92-7.39,2.77-10.51c1.85-3.12,4.4-5.56,7.66-7.31,3.26-1.75,6.92-2.63,11-2.63,3.2,0,6.1.52,8.71,1.57,2.61,1.05,4.83,2.58,6.66,4.6l-3.54,3.54c-3.2-3.08-7.07-4.63-11.6-4.63-3.05,0-5.78.66-8.2,1.97-2.42,1.31-4.31,3.14-5.69,5.49-1.37,2.34-2.06,4.98-2.06,7.91s.69,5.51,2.06,7.86c1.37,2.34,3.27,4.18,5.69,5.51,2.42,1.33,5.13,2,8.14,2,3.58,0,6.7-.86,9.37-2.57v-13.03ZM662.88,848.3l-8.63-12.28c-1.07.08-1.91.11-2.51.11h-9.88v12.17h-5.71v-40h15.6c5.18,0,9.26,1.24,12.23,3.71,2.97,2.48,4.46,5.88,4.46,10.23,0,3.09-.76,5.71-2.29,7.89-1.52,2.17-3.7,3.75-6.51,4.74l9.48,13.43h-6.23ZM659.85,828.93c1.9-1.56,2.86-3.79,2.86-6.68s-.95-5.11-2.86-6.66c-1.91-1.54-4.67-2.31-8.29-2.31h-9.71v18h9.71c3.62,0,6.38-.78,8.29-2.34ZM706.7,843.32v4.97h-29.03v-40h28.23v4.97h-22.51v12.28h20.05v4.86h-20.05v12.91h23.31ZM743.5,828.07h5.49v15.6c-1.98,1.64-4.29,2.9-6.91,3.77-2.63.88-5.37,1.31-8.23,1.31-4.04,0-7.68-.89-10.91-2.66-3.24-1.77-5.78-4.21-7.63-7.31-1.85-3.1-2.77-6.6-2.77-10.48s.92-7.39,2.77-10.51,4.4-5.56,7.66-7.31c3.26-1.75,6.92-2.63,11-2.63,3.2,0,6.1.52,8.71,1.57,2.61,1.05,4.83,2.58,6.66,4.6l-3.54,3.54c-3.2-3.08-7.07-4.63-11.6-4.63-3.05,0-5.78.66-8.2,1.97-2.42,1.31-4.31,3.14-5.69,5.49-1.37,2.34-2.06,4.98-2.06,7.91s.69,5.51,2.06,7.86c1.37,2.34,3.27,4.18,5.69,5.51,2.42,1.33,5.13,2,8.14,2,3.58,0,6.7-.86,9.37-2.57v-13.03ZM767.04,846.1c-3.24-1.77-5.78-4.22-7.63-7.34-1.85-3.12-2.77-6.61-2.77-10.46s.92-7.33,2.77-10.46,4.39-5.57,7.63-7.34c3.24-1.77,6.87-2.66,10.91-2.66s7.62.89,10.86,2.66c3.24,1.77,5.77,4.21,7.6,7.31,1.83,3.11,2.74,6.6,2.74,10.48s-.91,7.38-2.74,10.48c-1.83,3.11-4.36,5.54-7.6,7.31-3.24,1.77-6.86,2.66-10.86,2.66s-7.68-.89-10.91-2.66ZM785.86,841.67c2.34-1.33,4.19-3.17,5.54-5.51,1.35-2.34,2.03-4.96,2.03-7.86s-.68-5.51-2.03-7.86c-1.35-2.34-3.2-4.18-5.54-5.51-2.34-1.33-4.98-2-7.91-2s-5.59.67-7.97,2c-2.38,1.33-4.25,3.17-5.6,5.51-1.35,2.34-2.03,4.96-2.03,7.86s.68,5.51,2.03,7.86c1.35,2.34,3.22,4.18,5.6,5.51,2.38,1.33,5.04,2,7.97,2s5.57-.67,7.91-2ZM834.63,848.3l-8.63-12.28c-1.07.08-1.91.11-2.51.11h-9.88v12.17h-5.71v-40h15.6c5.18,0,9.26,1.24,12.23,3.71,2.97,2.48,4.46,5.88,4.46,10.23,0,3.09-.76,5.71-2.29,7.89-1.52,2.17-3.7,3.75-6.51,4.74l9.48,13.43h-6.23ZM831.6,828.93c1.9-1.56,2.86-3.79,2.86-6.68s-.95-5.11-2.86-6.66c-1.91-1.54-4.67-2.31-8.29-2.31h-9.71v18h9.71c3.62,0,6.38-.78,8.29-2.34ZM864.17,834.47v13.83h-5.66v-13.94l-15.88-26.05h6.11l12.8,21.08,12.86-21.08h5.66l-15.88,26.17ZM524.03,916.86l-8.63-12.28c-1.07.08-1.9.11-2.51.11h-9.88v12.17h-5.71v-40h15.6c5.18,0,9.26,1.24,12.23,3.71,2.97,2.48,4.46,5.88,4.46,10.23,0,3.09-.76,5.71-2.29,7.89-1.52,2.17-3.7,3.75-6.51,4.74l9.48,13.43h-6.23ZM521.01,897.49c1.9-1.56,2.86-3.79,2.86-6.68s-.95-5.11-2.86-6.66c-1.91-1.54-4.67-2.31-8.29-2.31h-9.71v18h9.71c3.62,0,6.38-.78,8.29-2.34ZM545.98,914.66c-3.24-1.77-5.78-4.22-7.63-7.34-1.85-3.12-2.77-6.61-2.77-10.46s.92-7.33,2.77-10.46c1.85-3.12,4.39-5.57,7.63-7.34,3.24-1.77,6.87-2.66,10.91-2.66s7.62.89,10.86,2.66c3.24,1.77,5.77,4.21,7.6,7.31,1.83,3.11,2.74,6.6,2.74,10.48s-.91,7.38-2.74,10.48c-1.83,3.11-4.36,5.54-7.6,7.31-3.24,1.77-6.86,2.66-10.86,2.66s-7.68-.89-10.91-2.66ZM564.8,910.23c2.34-1.33,4.19-3.17,5.54-5.51,1.35-2.34,2.03-4.96,2.03-7.86s-.68-5.51-2.03-7.86c-1.35-2.34-3.2-4.18-5.54-5.51-2.34-1.33-4.98-2-7.91-2s-5.59.67-7.97,2c-2.38,1.33-4.25,3.17-5.6,5.51-1.35,2.34-2.03,4.96-2.03,7.86s.68,5.51,2.03,7.86c1.35,2.34,3.22,4.18,5.6,5.51,2.38,1.33,5.04,2,7.97,2s5.57-.67,7.91-2ZM586.83,876.86h16.86c4.23,0,7.98.84,11.26,2.51,3.28,1.68,5.82,4.03,7.63,7.06s2.71,6.51,2.71,10.43-.91,7.4-2.71,10.43c-1.81,3.03-4.35,5.38-7.63,7.06-3.28,1.68-7.03,2.51-11.26,2.51h-16.86v-40ZM603.34,911.89c3.24,0,6.09-.63,8.54-1.89s4.35-3.02,5.69-5.29c1.33-2.27,2-4.88,2-7.86s-.67-5.59-2-7.86c-1.33-2.27-3.23-4.03-5.69-5.28-2.46-1.26-5.3-1.89-8.54-1.89h-10.8v30.05h10.8ZM660.76,916.86l-8.63-12.28c-1.07.08-1.91.11-2.51.11h-9.88v12.17h-5.71v-40h15.6c5.18,0,9.26,1.24,12.23,3.71,2.97,2.48,4.46,5.88,4.46,10.23,0,3.09-.76,5.71-2.29,7.89-1.52,2.17-3.7,3.75-6.51,4.74l9.48,13.43h-6.23ZM657.74,897.49c1.9-1.56,2.86-3.79,2.86-6.68s-.95-5.11-2.86-6.66c-1.91-1.54-4.67-2.31-8.29-2.31h-9.71v18h9.71c3.62,0,6.38-.78,8.29-2.34ZM675.56,876.86h5.71v40h-5.71v-40ZM720.99,896.63h5.49v15.6c-1.98,1.64-4.29,2.9-6.91,3.77-2.63.88-5.37,1.31-8.23,1.31-4.04,0-7.68-.89-10.91-2.66-3.24-1.77-5.78-4.21-7.63-7.31-1.85-3.1-2.77-6.6-2.77-10.48s.92-7.39,2.77-10.51,4.4-5.56,7.66-7.31c3.26-1.75,6.92-2.63,11-2.63,3.2,0,6.1.52,8.71,1.57,2.61,1.05,4.83,2.58,6.66,4.6l-3.54,3.54c-3.2-3.08-7.07-4.63-11.6-4.63-3.05,0-5.78.66-8.2,1.97-2.42,1.31-4.31,3.14-5.69,5.49-1.37,2.34-2.06,4.98-2.06,7.91s.69,5.51,2.06,7.86c1.37,2.34,3.27,4.18,5.69,5.51,2.42,1.33,5.13,2,8.14,2,3.58,0,6.7-.86,9.37-2.57v-13.03ZM741.5,912.75c-2.97-3.05-4.46-7.43-4.46-13.14v-22.74h5.71v22.51c0,8.57,3.75,12.86,11.26,12.86,3.66,0,6.46-1.06,8.4-3.17,1.94-2.11,2.91-5.34,2.91-9.68v-22.51h5.54v22.74c0,5.75-1.49,10.14-4.46,13.17-2.97,3.03-7.12,4.54-12.46,4.54s-9.48-1.52-12.46-4.57ZM811.6,911.89v4.97h-29.03v-40h28.23v4.97h-22.51v12.28h20.05v4.86h-20.05v12.91h23.31ZM850.74,911.89v4.97h-33.43v-3.89l25.14-31.14h-24.74v-4.97h32.28v3.89l-25.03,31.14h25.77ZM1007,148.84c-.11-.7-.31-1.34-.64-1.91-4.22-7.54-20.85-10.3-28.41-11.43-11.7-1.75-23.5-1.14-32.03,8.2-9.93,10.87-17.36,23.87-23.35,37.25-2.7,6.04-3.72,22.34,2.94,26.25,11.43,6.72,30.3,10.47,41.14,1.2,8.8-7.52,15.82-17.69,22.49-27.04,4.07-5.71,19.22-23.63,17.86-32.52ZM615.5,148.84c-.11-.7-.31-1.34-.64-1.91-4.22-7.54-20.85-10.3-28.41-11.43-11.7-1.75-23.5-1.14-32.03,8.2-9.93,10.87-17.36,23.87-23.35,37.25-2.7,6.04-3.72,22.34,2.94,26.25,11.43,6.72,30.3,10.47,41.14,1.2,8.8-7.52,15.82-17.69,22.49-27.04,4.07-5.71,19.22-23.63,17.86-32.52ZM397.56,945.27c-8.08,0-15.66-3.09-22.78-9.25-15.2-14.72-23.74-41.54-25.63-80.45,0-39.4,6.64-89.24,19.93-149.51,5.7-29.43,8.54-48.65,8.54-57.67,0-3.79-.71-5.69-2.14-5.69-2.85,0-26.34,25.16-70.48,75.47-30.38,33.71-61.23,66.92-92.55,99.67-16.14,15.66-33.94,23.73-53.39,24.21-14.72,0-29.67-4.27-44.85-12.82-27.52-19.93-41.29-46.75-41.29-80.45,0-10.91,3.45-31.91,10.32-63.01,6.89-31.08,27.52-75.34,61.94-132.78,34.41-57.42,70.13-109.04,107.15-154.85,37.02-45.8,65.97-77.24,86.86-94.33,20.88-17.09,41.76-25.63,62.65-25.63,53.15,0,79.74,24.69,79.74,74.04,0,18.04-8.08,32.28-24.21,42.72-4.27,2.38-9.02,3.8-14.24,4.27-3.8,0-7.36-1.42-10.68-4.27-3.33-2.85-4.98-6.64-4.98-11.39s1.18-9.49,3.56-14.24c6.16-13.76,9.25-24.2,9.25-31.33,0-6.64-2.61-9.97-7.83-9.97-4.75,0-11.87,3.09-21.36,9.26-35.6,25.16-73.45,63.01-113.55,113.55-40.11,50.55-75,104.42-104.66,161.61-29.67,57.2-46.4,108.81-50.19,154.85,0,9.01,2.14,13.53,6.41,13.53,4.74-.48,12.82-5.94,24.21-16.38l160.19-163.03c2.85-2.37,4.27-5.93,4.27-10.68-.48-4.74-2.49-7.35-6.05-7.83-3.56-.47-7.01-.71-10.32-.71-17.57,0-31.09-9.49-40.58-28.48-1.9-3.79-3.09-7.59-3.56-11.39,0-10.91,6.88-16.61,20.65-17.09,13.76-.47,33.22-3.08,58.38-7.83,41.76-8.07,75.47-12.57,101.1-13.53,19.46,0,37.73,2.14,54.82,6.41,18.98,4.75,30.61,19.94,34.89,45.56,0,10.93-5.23,16.62-15.66,17.09-4.27,0-8.79-.71-13.53-2.13-4.75-1.42-10.21-2.14-16.37-2.14-49.84,1.42-74.75,92.8-74.75,274.1,0,21.36.47,46.28,1.42,74.76,0,18.51-10.21,27.76-30.61,27.76ZM541.06,496.12h-2.14c-24.21,0-37.27-16.37-39.16-49.12-.96-16.13-1.42-31.79-1.42-46.99,0-57.42,5.7-110.59,17.09-159.48,3.31-13.76,12.34-20.65,27.05-20.65,25.63,0,38.44,10.21,38.44,30.61,0,5.69-.48,10.92-1.42,15.66-11.87,60.28-19.22,121.51-22.07,183.68,0,5.23.59,9.97,1.78,14.24,1.18,4.27,1.78,8.78,1.78,13.53,0,3.79-.36,7.59-1.07,11.39-.71,3.79-7.01,6.16-18.87,7.12ZM698.33,749.17c-29.9,0-58.86-14.01-86.86-42.01-9.97-10.44-14.95-22.07-14.95-34.88,0-15.67,6.89-23.5,20.65-23.5,8.06,0,13.53,4.74,16.37,14.24,9.49,31.33,28.94,46.99,58.38,46.99,10.44,0,18.87-3.68,25.27-11.03,6.41-7.37,12.46-16.73,18.15-28.12,25.15-47.46,42.24-95.88,51.26-145.23,11.86-64.07,17.8-120.32,17.8-168.73,0-5.22-1.9-7.83-5.7-7.83-1.42,0-3.8.84-7.12,2.49-3.33,1.67-34.42,36.43-93.26,104.3-15.66,18.03-32.52,27.05-50.55,27.05-11.87,0-24.45-4.04-37.73-12.1-19.93-12.34-29.9-28.48-29.9-48.41,0-9.01,2.14-18.98,6.41-29.9,32.27-87.32,79.97-164.69,143.1-232.09,14.71-16.13,30.61-24.21,47.7-24.21,1.89,0,7.94.48,18.15,1.42,10.2.96,21.47,10.93,33.82,29.9,4.27,6.17,6.41,11.39,6.41,15.66,0,4.75-2.38,9.02-7.12,12.82-4.75,3.8-9.25,5.69-13.53,5.69-4.75,0-9.26-2.72-13.53-8.19-4.27-5.45-8.08-8.19-11.39-8.19-3.8,0-8.54,3.33-14.24,9.97-21.84,24.69-46.99,59.45-75.46,104.3-28.48,44.85-44.85,82.94-49.12,114.26,12.34-8.07,29.42-23.96,51.26-47.7,21.83-23.73,42.47-48.41,61.94-74.04,19.46-25.63,32.04-45.09,37.73-58.38,3.31-7.12,9.49-10.68,18.51-10.68,20.88,0,34.89,9.5,42.01,28.48,5.22,12.81,7.83,38.92,7.83,78.31,0,139.54-24.92,256.77-74.75,351.7-24.21,45.09-56.72,67.63-97.54,67.63ZM928.99,501.41h-2.14c-24.21,0-37.27-16.37-39.16-49.12-.96-16.13-1.42-31.79-1.42-46.99,0-57.42,5.7-110.59,17.09-159.48,3.31-13.76,12.34-20.65,27.05-20.65,25.63,0,38.44,10.21,38.44,30.61,0,5.69-.48,10.92-1.42,15.66-11.87,60.28-19.22,121.51-22.07,183.68,0,5.23.59,9.97,1.78,14.24,1.18,4.27,1.78,8.78,1.78,13.53,0,3.79-.36,7.59-1.07,11.39-.71,3.79-7.01,6.16-18.87,7.12Z"/>
</svg>